<svg width="36" height="36" viewBox="0 0 36 36" fill="none" xmlns="http://www.w3.org/2000/svg">
<rect x="0.5" y="0.5" width="35" height="35" rx="17.5" stroke="#F6F9FC"/>
<path fill-rule="evenodd" clip-rule="evenodd" d="M17.726 21.2259C17.8969 21.055 17.8969 20.778 17.726 20.6071L15.1187 17.9998L17.726 15.3925C17.8969 15.2217 17.8969 14.9447 17.726 14.7738C17.5552 14.603 17.2782 14.603 17.1073 14.7738L14.1906 17.6905C14.0198 17.8613 14.0198 18.1383 14.1906 18.3092L17.1073 21.2259C17.2782 21.3967 17.5552 21.3967 17.726 21.2259Z" fill="#F6F9FC"/>
<path fill-rule="evenodd" clip-rule="evenodd" d="M14.0625 18C14.0625 18.2416 14.2584 18.4375 14.5 18.4375H21.5C21.7416 18.4375 21.9375 18.2416 21.9375 18C21.9375 17.7584 21.7416 17.5625 21.5 17.5625H14.5C14.2584 17.5625 14.0625 17.7584 14.0625 18Z" fill="#F6F9FC"/>
</svg>
