<svg width="36" height="36" viewBox="0 0 36 36" fill="none" xmlns="http://www.w3.org/2000/svg">
<rect width="36" height="36" rx="18" fill="#F6F9FC"/>
<path fill-rule="evenodd" clip-rule="evenodd" d="M18.274 21.2259C18.4448 21.3967 18.7218 21.3967 18.8927 21.2259L21.8094 18.3092C21.9802 18.1383 21.9802 17.8613 21.8094 17.6905L18.8927 14.7738C18.7218 14.603 18.4448 14.603 18.274 14.7738C18.1031 14.9447 18.1031 15.2217 18.274 15.3925L20.8813 17.9998L18.274 20.6071C18.1031 20.778 18.1031 21.055 18.274 21.2259Z" fill="#3250A5"/>
<path fill-rule="evenodd" clip-rule="evenodd" d="M14.0625 18C14.0625 18.2416 14.2584 18.4375 14.5 18.4375H21.5C21.7416 18.4375 21.9375 18.2416 21.9375 18C21.9375 17.7584 21.7416 17.5625 21.5 17.5625H14.5C14.2584 17.5625 14.0625 17.7584 14.0625 18Z" fill="#3250A5"/>
</svg>
