<svg width="34" height="34" viewBox="0 0 34 34" fill="none" xmlns="http://www.w3.org/2000/svg">
<path d="M19.937 2.43498L22.9287 8.41831C23.3366 9.25123 24.4245 10.0501 25.3424 10.2031L30.7648 11.104C34.2324 11.6819 35.0483 14.1976 32.5496 16.6794L28.3341 20.8949C27.6201 21.6088 27.2292 22.9857 27.4502 23.9715L28.657 29.19C29.6089 33.3205 27.4162 34.9183 23.7616 32.7596L18.6791 29.7509C17.7612 29.207 16.2484 29.207 15.3135 29.7509L10.231 32.7596C6.59345 34.9183 4.38369 33.3035 5.33559 29.19L6.54245 23.9715C6.76343 22.9857 6.37247 21.6088 5.65855 20.8949L1.44302 16.6794C-1.0387 14.1976 -0.239788 11.6819 3.22782 11.104L8.65022 10.2031C9.55112 10.0501 10.639 9.25123 11.0469 8.41831L14.0387 2.43498C15.6705 -0.811659 18.3222 -0.811659 19.937 2.43498Z" fill="#E9A929"/>
</svg>
